<?xml version="1.0" standalone="no"?>
<!DOCTYPE svg PUBLIC "-//W3C//DTD SVG 20010904//EN"
 "http://www.w3.org/TR/2001/REC-SVG-20010904/DTD/svg10.dtd">
<svg version="1.0" xmlns="http://www.w3.org/2000/svg"
 width="512.000000pt" height="512.000000pt" viewBox="0 0 512.000000 512.000000"
 preserveAspectRatio="xMidYMid meet">

<g transform="translate(0.000000,512.000000) scale(0.100000,-0.100000)"
fill="#000000" stroke="none">
<path d="M2693 5110 c-29 -12 -47 -41 -78 -130 -38 -107 -115 -263 -173 -350
-119 -179 -227 -281 -576 -542 -341 -257 -489 -384 -670 -577 -282 -302 -492
-741 -534 -1118 l-7 -67 -45 -11 c-104 -27 -179 -86 -227 -178 -24 -45 -28
-63 -28 -142 0 -78 4 -97 28 -147 50 -101 154 -172 275 -184 l60 -7 27 -76
c81 -230 244 -465 429 -621 284 -238 627 -359 1017 -360 l137 0 67 -271 c50
-201 74 -278 91 -298 l22 -26 1089 -3 c804 -2 1095 1 1116 9 62 26 57 -180 57
2547 0 1691 -3 2500 -10 2513 -28 51 5 49 -1057 48 -546 0 -998 -4 -1010 -9z
m1877 -2550 l0 -2360 -968 0 -967 0 -69 276 c-50 201 -75 283 -91 302 l-22 25
-229 2 c-254 1 -332 13 -509 75 -245 87 -458 243 -607 445 -74 100 -169 292
-203 410 -16 58 -34 98 -50 115 -24 24 -30 25 -125 22 l-99 -3 -36 33 c-27 24
-38 44 -42 74 -10 79 44 137 141 149 133 17 144 28 162 186 35 298 129 559
292 809 166 255 391 473 802 778 384 285 515 409 657 622 56 83 137 241 174
338 l24 62 882 0 883 0 0 -2360z"/>
<path d="M2729 3501 c-38 -38 -39 -87 -4 -129 45 -54 128 -45 160 19 14 27 15
39 6 70 -22 72 -108 94 -162 40z"/>
<path d="M2209 3141 c-49 -49 -38 -125 23 -157 84 -43 174 43 133 129 -30 63
-107 77 -156 28z"/>
<path d="M2779 2961 c-75 -76 4 -201 102 -161 40 17 59 47 59 93 0 53 -43 97
-95 97 -27 0 -44 -8 -66 -29z"/>
<path d="M2194 2690 c-37 -15 -54 -50 -54 -111 0 -56 -1 -58 -31 -64 -16 -4
-60 -27 -96 -51 l-66 -44 -53 26 c-59 29 -84 27 -127 -6 -58 -46 -41 -129 34
-172 l42 -23 1 -112 1 -111 -32 -17 c-54 -30 -78 -62 -78 -107 0 -33 6 -45 33
-69 41 -36 81 -38 138 -4 l43 25 44 -33 c24 -18 66 -43 95 -55 l52 -23 0 -55
c0 -48 4 -59 29 -85 22 -21 39 -29 66 -29 70 0 105 42 105 129 0 47 1 50 31
56 17 4 59 27 94 51 l64 43 43 -24 c49 -28 78 -31 117 -11 74 39 65 138 -19
185 l-41 23 6 66 c4 37 2 86 -3 110 l-10 42 44 26 c24 14 51 36 59 47 23 33
19 81 -10 115 -37 44 -66 47 -134 16 l-59 -26 -45 35 c-25 19 -66 43 -90 52
l-45 17 -4 60 c-4 53 -9 65 -36 89 -33 30 -68 36 -108 19z"/>
</g>
</svg>
