<?xml version="1.0" standalone="no"?>
<!DOCTYPE svg PUBLIC "-//W3C//DTD SVG 20010904//EN"
 "http://www.w3.org/TR/2001/REC-SVG-20010904/DTD/svg10.dtd">
<svg version="1.0" xmlns="http://www.w3.org/2000/svg"
 width="128.000000pt" height="128.000000pt" viewBox="0 0 128.000000 128.000000"
 preserveAspectRatio="xMidYMid meet">

<g transform="translate(0.000000,128.000000) scale(0.100000,-0.100000)"
fill="#000000" stroke="none">
<path d="M606 1264 c-14 -13 -16 -52 -16 -274 0 -316 -5 -348 -69 -411 -38
-39 -62 -51 -143 -78 -54 -18 -99 -39 -102 -47 -12 -30 -6 -54 17 -69 22 -14
31 -13 126 19 102 34 156 66 198 115 l22 26 25 -27 c51 -53 95 -79 197 -113
95 -32 104 -34 126 -20 23 15 30 49 15 73 -5 7 -53 28 -107 47 -74 25 -108 43
-137 72 -62 61 -68 95 -68 404 0 230 -2 270 -16 283 -8 9 -24 16 -34 16 -10 0
-26 -7 -34 -16z"/>
<path d="M349 1056 c-93 -25 -167 -83 -208 -165 -19 -36 -111 -420 -130 -541
-14 -83 -14 -155 0 -204 21 -75 119 -146 204 -146 38 0 212 48 258 71 48 25
92 86 107 149 10 43 10 54 -4 75 -29 45 -96 21 -96 -34 0 -34 -27 -79 -58 -95
-41 -21 -177 -56 -218 -56 -26 0 -43 8 -66 31 l-31 30 6 102 c8 142 101 538
141 597 30 46 109 90 162 90 33 0 64 26 64 53 0 25 -36 57 -62 56 -13 0 -44
-6 -69 -13z"/>
<path d="M821 1051 c-12 -12 -21 -29 -21 -39 0 -27 32 -52 66 -52 51 0 130
-44 160 -90 40 -59 133 -455 141 -597 l6 -102 -31 -30 c-23 -23 -40 -31 -66
-31 -41 0 -177 35 -218 56 -31 16 -58 61 -58 97 0 53 -67 76 -96 32 -34 -53
26 -184 103 -224 46 -23 220 -71 258 -71 85 0 179 68 203 146 25 85 16 162
-60 489 -54 235 -77 295 -137 347 -44 39 -122 75 -183 83 -39 6 -49 4 -67 -14z"/>
</g>
</svg>
