<?xml version="1.0" standalone="no"?>
<!DOCTYPE svg PUBLIC "-//W3C//DTD SVG 20010904//EN"
 "http://www.w3.org/TR/2001/REC-SVG-20010904/DTD/svg10.dtd">
<svg version="1.0" xmlns="http://www.w3.org/2000/svg"
 width="128.000000pt" height="128.000000pt" viewBox="0 0 128.000000 128.000000"
 preserveAspectRatio="xMidYMid meet">

<g transform="translate(0.000000,128.000000) scale(0.100000,-0.100000)"
fill="#000000" stroke="none">
<path d="M900 1264 c-14 -9 -76 -67 -137 -128 -62 -61 -113 -105 -113 -98 0 7
-11 24 -25 37 -32 33 -84 33 -122 1 -26 -22 -27 -29 -31 -127 l-4 -104 -56
-58 -56 -57 -13 25 c-8 14 -26 28 -41 31 -15 4 -36 13 -47 20 -25 18 -60 18
-93 1 -15 -8 -40 -20 -56 -28 -40 -20 -80 -125 -62 -161 7 -13 16 -37 20 -51
3 -15 18 -37 31 -49 l25 -21 -40 -43 c-41 -45 -52 -84 -24 -84 8 0 40 24 71
52 34 33 62 52 74 50 10 -2 31 3 46 11 16 9 43 21 60 27 26 10 35 21 43 51 6
21 15 41 20 44 6 3 10 21 10 38 0 27 12 45 70 102 l70 69 0 101 c0 112 10 139
51 133 18 -2 25 -10 27 -33 5 -56 12 -75 29 -75 9 0 82 65 163 145 80 80 153
145 163 145 15 0 37 -27 37 -46 0 -4 -57 -65 -127 -136 -120 -121 -126 -129
-110 -145 16 -17 25 -9 165 130 152 152 180 169 202 126 11 -19 -2 -35 -134
-168 -80 -81 -146 -154 -146 -163 0 -41 29 -23 145 92 107 105 127 121 152
118 21 -2 29 -9 31 -27 3 -19 -20 -48 -119 -147 -86 -86 -120 -127 -116 -138
11 -29 31 -17 117 69 89 89 120 103 140 64 11 -19 -3 -36 -141 -174 -144 -146
-153 -153 -173 -139 -29 20 -69 18 -99 -6 -14 -11 -35 -20 -47 -20 -29 0 -80
-53 -80 -83 0 -14 -6 -30 -14 -36 -24 -20 -30 -69 -11 -97 l17 -26 -121 -123
c-87 -88 -120 -127 -115 -139 3 -9 11 -16 17 -16 7 0 60 48 118 106 l107 107
27 -22 c15 -11 40 -21 55 -21 15 0 35 -9 45 -20 24 -27 86 -27 110 0 10 11 30
20 45 20 39 0 72 30 75 68 1 18 9 40 17 50 28 32 31 60 9 98 -12 19 -21 44
-21 54 0 10 -12 33 -27 50 l-26 32 141 141 c77 78 141 151 142 162 4 41 -1 57
-25 81 -23 23 -24 27 -10 47 25 35 19 85 -13 115 -24 23 -27 31 -20 53 19 58
-33 115 -98 107 -30 -3 -41 1 -64 24 -33 32 -73 36 -110 12z m-666 -509 c3 -9
18 -15 36 -15 27 0 30 -3 30 -30 0 -18 6 -33 15 -36 19 -8 19 -38 1 -54 -8 -6
-16 -24 -18 -38 -2 -20 -9 -27 -25 -27 -12 0 -31 -9 -42 -19 -21 -19 -22 -19
-44 1 -12 11 -28 18 -35 16 -19 -7 -41 15 -35 36 2 9 -3 23 -11 30 -20 17 -21
47 0 55 8 3 14 14 13 23 -3 36 2 43 31 43 18 0 33 6 36 15 4 8 14 15 24 15 10
0 20 -7 24 -15z m623 -262 c13 -36 23 -43 49 -31 20 9 28 8 40 -4 13 -13 14
-20 4 -37 -12 -24 1 -51 25 -51 18 0 27 -30 14 -46 -6 -8 -18 -14 -26 -14 -19
0 -28 -27 -14 -44 6 -7 8 -21 5 -31 -6 -14 -15 -16 -46 -11 -34 6 -39 4 -48
-19 -13 -33 -47 -33 -60 0 -9 23 -14 25 -48 19 -31 -5 -40 -3 -46 11 -3 10 -1
24 5 31 14 17 5 44 -14 44 -8 0 -20 6 -26 14 -13 16 -4 46 14 46 24 0 37 27
25 51 -10 17 -9 24 4 37 12 12 20 13 40 4 26 -12 36 -5 49 31 4 9 16 17 27 17
11 0 23 -8 27 -17z"/>
<path d="M181 701 c-17 -11 -7 -41 13 -41 22 0 30 20 15 36 -9 8 -19 10 -28 5z"/>
<path d="M843 409 c-16 -16 -5 -39 19 -39 14 0 19 6 16 22 -4 25 -19 33 -35
17z"/>
<path d="M750 341 c0 -24 25 -34 40 -16 15 18 5 35 -21 35 -12 0 -19 -7 -19
-19z"/>
<path d="M861 306 c-16 -19 -6 -36 20 -36 15 0 20 6 17 22 -4 27 -21 33 -37
14z"/>
<path d="M714 719 c-3 -6 0 -17 7 -25 18 -17 44 -2 36 20 -7 18 -33 21 -43 5z"/>
<path d="M494 645 c-7 -18 3 -35 21 -35 18 0 26 25 12 39 -15 15 -27 14 -33
-4z"/>
<path d="M477 416 c-8 -20 20 -43 35 -28 14 14 3 42 -16 42 -7 0 -16 -6 -19
-14z"/>
<path d="M235 360 c-9 -15 14 -40 31 -33 22 8 18 43 -5 43 -11 0 -23 -5 -26
-10z"/>
<path d="M344 165 c-7 -18 3 -35 21 -35 15 0 28 27 19 41 -8 14 -34 11 -40 -6z"/>
</g>
</svg>
